<mxfile host="app.diagrams.net" agent="Mozilla/5.0 (Windows NT 10.0; Win64; x64) AppleWebKit/537.36 (KHTML, like Gecko) Chrome/137.0.0.0 Safari/537.36" version="27.1.4">
  <diagram name="Страница — 1" id="uq4wg_gt0K_cgzHgbXmh">
    <mxGraphModel dx="1426" dy="785" grid="0" gridSize="10" guides="1" tooltips="1" connect="1" arrows="1" fold="1" page="0" pageScale="1" pageWidth="827" pageHeight="1169" math="0" shadow="0">
      <root>
        <mxCell id="0" />
        <mxCell id="1" parent="0" />
        <mxCell id="5Dg9xLEAMZWn7h3RCpYB-1" value="сервис бронирования отелей" style="rounded=1;whiteSpace=wrap;html=1;" parent="1" vertex="1">
          <mxGeometry x="250" y="370" width="290" height="130" as="geometry" />
        </mxCell>
        <mxCell id="5Dg9xLEAMZWn7h3RCpYB-3" value="" style="endArrow=classic;html=1;rounded=0;entryX=0.594;entryY=1;entryDx=0;entryDy=0;entryPerimeter=0;" parent="1" edge="1">
          <mxGeometry width="50" height="50" relative="1" as="geometry">
            <mxPoint x="439.37" y="600" as="sourcePoint" />
            <mxPoint x="440.63" y="500" as="targetPoint" />
            <Array as="points">
              <mxPoint x="440.37" y="550" />
            </Array>
          </mxGeometry>
        </mxCell>
        <mxCell id="5Dg9xLEAMZWn7h3RCpYB-4" value="" style="endArrow=classic;html=1;rounded=0;entryX=0.594;entryY=1;entryDx=0;entryDy=0;entryPerimeter=0;" parent="1" edge="1">
          <mxGeometry width="50" height="50" relative="1" as="geometry">
            <mxPoint x="330" y="600" as="sourcePoint" />
            <mxPoint x="331.26" y="500" as="targetPoint" />
            <Array as="points">
              <mxPoint x="331" y="550" />
            </Array>
          </mxGeometry>
        </mxCell>
        <mxCell id="5Dg9xLEAMZWn7h3RCpYB-7" value="" style="endArrow=classic;html=1;rounded=0;entryX=0.594;entryY=1;entryDx=0;entryDy=0;entryPerimeter=0;" parent="1" edge="1">
          <mxGeometry width="50" height="50" relative="1" as="geometry">
            <mxPoint x="460.00000000000045" y="280" as="sourcePoint" />
            <mxPoint x="460.26" y="370" as="targetPoint" />
            <Array as="points">
              <mxPoint x="460" y="320" />
            </Array>
          </mxGeometry>
        </mxCell>
        <mxCell id="5Dg9xLEAMZWn7h3RCpYB-8" value="" style="endArrow=classic;html=1;rounded=0;entryX=0.594;entryY=1;entryDx=0;entryDy=0;entryPerimeter=0;" parent="1" edge="1">
          <mxGeometry width="50" height="50" relative="1" as="geometry">
            <mxPoint x="330.00000000000045" y="280" as="sourcePoint" />
            <mxPoint x="330.26" y="370" as="targetPoint" />
            <Array as="points">
              <mxPoint x="330" y="320" />
            </Array>
          </mxGeometry>
        </mxCell>
        <mxCell id="5Dg9xLEAMZWn7h3RCpYB-9" value="" style="endArrow=classic;html=1;rounded=0;entryX=-0.001;entryY=0.228;entryDx=0;entryDy=0;entryPerimeter=0;" parent="1" target="5Dg9xLEAMZWn7h3RCpYB-1" edge="1">
          <mxGeometry width="50" height="50" relative="1" as="geometry">
            <mxPoint x="160" y="400" as="sourcePoint" />
            <mxPoint x="180.26" y="460" as="targetPoint" />
            <Array as="points" />
          </mxGeometry>
        </mxCell>
        <mxCell id="5Dg9xLEAMZWn7h3RCpYB-10" value="" style="endArrow=classic;html=1;rounded=0;" parent="1" edge="1">
          <mxGeometry width="50" height="50" relative="1" as="geometry">
            <mxPoint x="141" y="450" as="sourcePoint" />
            <mxPoint x="250" y="450" as="targetPoint" />
            <Array as="points" />
          </mxGeometry>
        </mxCell>
        <mxCell id="5Dg9xLEAMZWn7h3RCpYB-14" value="Информация о клиентах" style="text;html=1;align=center;verticalAlign=middle;whiteSpace=wrap;rounded=0;" parent="1" vertex="1">
          <mxGeometry x="160" y="360" width="100" height="30" as="geometry" />
        </mxCell>
        <mxCell id="5Dg9xLEAMZWn7h3RCpYB-15" value="администратор" style="text;html=1;align=center;verticalAlign=middle;resizable=0;points=[];autosize=1;strokeColor=none;fillColor=none;" parent="1" vertex="1">
          <mxGeometry x="290" y="600" width="110" height="30" as="geometry" />
        </mxCell>
        <mxCell id="5Dg9xLEAMZWn7h3RCpYB-16" value="персонал" style="text;html=1;align=center;verticalAlign=middle;resizable=0;points=[];autosize=1;strokeColor=none;fillColor=none;" parent="1" vertex="1">
          <mxGeometry x="400" y="600" width="80" height="30" as="geometry" />
        </mxCell>
        <mxCell id="5Dg9xLEAMZWn7h3RCpYB-17" value="Законы РФ" style="text;html=1;align=center;verticalAlign=middle;whiteSpace=wrap;rounded=0;" parent="1" vertex="1">
          <mxGeometry x="278" y="285" width="60" height="30" as="geometry" />
        </mxCell>
        <mxCell id="5Dg9xLEAMZWn7h3RCpYB-18" value="информация о отелях" style="text;html=1;align=center;verticalAlign=middle;resizable=0;points=[];autosize=1;strokeColor=none;fillColor=none;" parent="1" vertex="1">
          <mxGeometry x="100" y="420" width="150" height="30" as="geometry" />
        </mxCell>
        <mxCell id="5Dg9xLEAMZWn7h3RCpYB-20" value="" style="endArrow=classic;html=1;rounded=0;entryX=-0.001;entryY=0.228;entryDx=0;entryDy=0;entryPerimeter=0;" parent="1" edge="1">
          <mxGeometry width="50" height="50" relative="1" as="geometry">
            <mxPoint x="540" y="400" as="sourcePoint" />
            <mxPoint x="630" y="400" as="targetPoint" />
            <Array as="points" />
          </mxGeometry>
        </mxCell>
        <mxCell id="5Dg9xLEAMZWn7h3RCpYB-21" value="" style="endArrow=classic;html=1;rounded=0;entryX=-0.001;entryY=0.228;entryDx=0;entryDy=0;entryPerimeter=0;" parent="1" edge="1">
          <mxGeometry width="50" height="50" relative="1" as="geometry">
            <mxPoint x="540" y="450" as="sourcePoint" />
            <mxPoint x="630" y="450" as="targetPoint" />
            <Array as="points" />
          </mxGeometry>
        </mxCell>
        <mxCell id="5Dg9xLEAMZWn7h3RCpYB-23" value="политика отелей" style="text;html=1;align=center;verticalAlign=middle;whiteSpace=wrap;rounded=0;" parent="1" vertex="1">
          <mxGeometry x="400" y="285" width="60" height="30" as="geometry" />
        </mxCell>
        <mxCell id="5Dg9xLEAMZWn7h3RCpYB-24" value="Подтверждение бронирования" style="text;html=1;align=center;verticalAlign=middle;whiteSpace=wrap;rounded=0;" parent="1" vertex="1">
          <mxGeometry x="550" y="370" width="60" height="30" as="geometry" />
        </mxCell>
        <mxCell id="5Dg9xLEAMZWn7h3RCpYB-25" value="Отчет" style="text;html=1;align=center;verticalAlign=middle;resizable=0;points=[];autosize=1;strokeColor=none;fillColor=none;" parent="1" vertex="1">
          <mxGeometry x="550" y="420" width="60" height="30" as="geometry" />
        </mxCell>
      </root>
    </mxGraphModel>
  </diagram>
</mxfile>
